<?xml version="1.0" standalone="no"?>
<!DOCTYPE svg PUBLIC "-//W3C//DTD SVG 20010904//EN"
 "http://www.w3.org/TR/2001/REC-SVG-20010904/DTD/svg10.dtd">
<svg version="1.0" xmlns="http://www.w3.org/2000/svg"
 width="444.000000pt" height="196.000000pt" viewBox="0 0 444.000000 196.000000"
 preserveAspectRatio="xMidYMid meet">

<g transform="translate(0.000000,196.000000) scale(0.100000,-0.100000)"
fill="#000000" stroke="none">
<path d="M1997 1889 c-49 -28 -74 -160 -87 -458 -23 -513 -36 -646 -66 -658
-21 -8 -40 12 -76 79 -41 77 -88 118 -134 118 -57 0 -90 -24 -133 -98 -107
-184 -259 -230 -496 -150 -103 35 -228 108 -185 108 12 0 183 115 250 168 99
79 230 216 178 186 -8 -4 -10 -3 -5 2 5 5 14 9 20 9 7 0 29 34 50 76 34 69 37
83 38 161 1 143 -40 246 -120 298 -67 45 -113 55 -198 43 -89 -13 -143 -40
-210 -106 l-52 -51 -49 46 c-80 75 -123 93 -222 93 -76 0 -91 -3 -139 -30
-106 -58 -165 -158 -166 -280 0 -69 22 -158 38 -148 6 3 7 1 3 -5 -12 -20 45
-110 98 -156 87 -74 131 -117 131 -126 0 -4 4 -12 9 -17 5 -5 6 -2 1 6 -5 9
-3 12 6 9 8 -3 13 -10 12 -16 -2 -7 5 -9 15 -5 9 3 14 2 10 -2 -5 -5 6 -17 23
-27 16 -10 27 -22 24 -27 -3 -5 24 -31 60 -57 36 -26 62 -51 58 -55 -33 -31
-282 -111 -388 -124 -49 -6 -50 -5 -65 26 -19 39 -72 69 -120 69 -43 0 -110
-42 -110 -70 0 -16 6 -13 33 16 27 30 41 37 73 38 48 1 90 -24 107 -62 6 -15
17 -33 24 -39 15 -17 74 -16 148 2 72 17 85 18 65 4 -12 -9 -12 -10 3 -5 10 3
23 6 28 6 6 0 8 4 5 9 -4 5 2 7 11 5 10 -2 68 16 128 42 61 25 119 48 130 50
12 3 58 -13 111 -40 113 -56 247 -96 328 -97 44 0 55 -3 41 -9 -14 -6 -6 -7
25 -4 62 8 158 56 200 100 19 20 29 33 21 29 -10 -5 -12 -4 -7 4 4 6 12 9 17
6 5 -4 21 15 36 41 42 71 73 104 96 104 18 0 19 2 7 10 -12 8 -11 10 6 10 11
0 31 -11 44 -25 13 -14 20 -25 17 -25 -4 0 2 -19 14 -42 27 -53 86 -107 117
-108 13 0 20 -4 17 -10 -14 -22 36 -8 50 14 36 54 48 170 65 607 12 300 28
447 49 435 17 -11 20 -89 30 -706 10 -614 21 -862 42 -945 8 -31 18 -46 44
-60 66 -35 85 14 85 215 1 225 35 351 104 384 17 8 54 17 81 21 120 16 185 57
231 147 38 75 77 95 119 61 11 -10 8 -6 -7 10 -18 17 -23 27 -14 27 17 0 58
-49 50 -61 -7 -12 35 -91 46 -84 6 4 7 -1 3 -11 -4 -11 -2 -15 4 -11 5 4 21
-5 33 -18 13 -14 29 -25 36 -25 7 0 17 -7 22 -16 13 -23 57 -8 71 24 24 51 31
122 46 477 15 354 28 514 44 543 6 11 10 9 14 -9 9 -37 26 -350 37 -689 19
-577 37 -869 56 -947 4 -13 12 -23 20 -23 7 0 17 -7 22 -15 12 -22 40 -9 59
28 12 24 17 80 23 252 6 208 8 224 32 277 14 31 35 61 46 67 10 6 74 24 141
40 129 32 165 46 156 61 -3 6 0 7 8 4 13 -5 67 47 67 65 0 4 10 13 23 19 20 9
20 11 3 11 -11 1 -16 4 -13 8 4 3 22 -2 41 -12 33 -18 35 -18 87 1 48 17 60
28 115 104 57 79 68 110 40 110 -6 0 -35 -34 -64 -75 -29 -41 -67 -82 -84 -91
-87 -45 -216 16 -233 109 -3 19 3 65 15 111 25 97 25 106 1 106 -13 0 -20 -9
-24 -27 -2 -16 -13 -57 -22 -93 -20 -70 -16 -123 11 -156 8 -10 12 -13 8 -5
-5 10 -3 12 5 7 7 -4 10 -13 8 -19 -3 -7 7 -24 21 -39 23 -26 24 -30 12 -54
-22 -40 -85 -70 -209 -100 -62 -15 -127 -37 -144 -48 -73 -49 -95 -133 -104
-393 -3 -106 -9 -193 -13 -193 -15 0 -33 272 -50 750 -28 811 -42 977 -86 994
-60 23 -99 -142 -114 -489 -15 -354 -29 -576 -38 -610 -10 -35 -36 -44 -61
-21 -9 9 -32 45 -51 81 -46 89 -80 120 -130 119 -47 -2 -86 -25 -108 -66 -72
-129 -99 -148 -231 -167 -81 -11 -113 -28 -149 -81 -40 -60 -53 -125 -58 -295
-6 -183 -11 -232 -25 -218 -21 21 -29 177 -39 773 -10 627 -21 870 -41 929
-13 38 -38 53 -62 40z m-808 -176 c24 -16 44 -32 44 -38 1 -5 13 -30 28 -54
85 -133 51 -304 -91 -455 -86 -91 -252 -217 -406 -309 -22 -13 -312 209 -397
303 -96 107 -139 252 -107 365 26 94 140 183 240 186 l45 2 -50 8 c-48 7 -47
7 17 5 41 -1 73 -7 80 -15 11 -11 8 -12 -12 -7 -14 4 -2 -5 26 -19 64 -31 138
-109 129 -133 -39 -103 -27 -155 37 -160 62 -5 84 48 52 128 -13 32 -14 43 -4
55 6 8 8 20 4 27 -4 7 -4 10 1 6 4 -4 28 11 52 33 50 45 113 78 158 80 26 2
27 2 6 6 -19 4 -21 7 -10 14 24 17 110 1 158 -28z m-299 -36 c0 -2 -10 -12
-22 -23 l-23 -19 19 23 c18 21 26 27 26 19z m-113 -229 c-3 -8 -6 -5 -6 6 -1
11 2 17 5 13 3 -3 4 -12 1 -19z m23 -38 c0 -5 -12 -10 -27 -9 -25 0 -26 1 -8
9 27 12 35 12 35 0z m2935 -488 c-3 -3 -18 7 -33 23 l-27 28 33 -23 c18 -12
31 -25 27 -28z m-2145 9 c-5 -11 -15 -23 -21 -27 -6 -3 -3 5 6 20 20 30 30 35
15 7z m1100 5 c0 -2 -7 -7 -16 -10 -8 -3 -12 -2 -9 4 6 10 25 14 25 6z m-2064
-42 l39 -35 -40 27 c-54 38 -61 44 -49 44 6 0 28 -16 50 -36z"/>
<path d="M1093 1723 c9 -2 23 -2 30 0 6 3 -1 5 -18 5 -16 0 -22 -2 -12 -5z"/>
<path d="M2830 756 c0 -2 8 -10 18 -17 15 -13 16 -12 3 4 -13 16 -21 21 -21
13z"/>
<path d="M35 715 c-16 -15 -25 -35 -24 -52 1 -26 2 -26 9 6 5 19 19 43 32 53
12 9 19 18 15 18 -4 0 -19 -11 -32 -25z"/>
<path d="M408 663 c7 -3 16 -2 19 1 4 3 -2 6 -13 5 -11 0 -14 -3 -6 -6z"/>
<path d="M146 633 c-6 -14 -5 -15 5 -6 7 7 10 15 7 18 -3 3 -9 -2 -12 -12z"/>
<path d="M220 626 c-5 -15 -10 -30 -10 -33 0 -4 -8 -16 -17 -27 -12 -14 -9
-13 10 4 38 33 52 59 38 73 -7 7 -13 2 -21 -17z"/>
<path d="M20 621 c0 -5 5 -13 10 -16 6 -3 10 -2 10 4 0 5 -4 13 -10 16 -5 3
-10 2 -10 -4z"/>
<path d="M1 596 c2 -10 15 -26 29 -34 l25 -16 -25 29 c-14 17 -27 32 -29 35
-2 3 -2 -3 0 -14z"/>
</g>
</svg>
